<svg width="24" height="24" viewBox="0 0 24 24" fill="none" xmlns="http://www.w3.org/2000/svg">
<rect x="0.75" y="0.75" width="22.5" height="22.5" rx="11.25" stroke="#3E78FE" stroke-opacity="0.6" stroke-width="1.5"/>
<path d="M12.7222 11.2777H17.0555C17.4542 11.2777 17.7777 11.6013 17.7777 11.9999C17.7777 12.3986 17.4542 12.7222 17.0555 12.7222H12.7222V17.0555C12.7222 17.4542 12.3986 17.7777 11.9999 17.7777C11.6013 17.7777 11.2777 17.4542 11.2777 17.0555V12.7222H6.94439C6.54572 12.7222 6.22217 12.3986 6.22217 11.9999C6.22217 11.6013 6.54572 11.2777 6.94439 11.2777H11.2777V6.94439C11.2777 6.54572 11.6013 6.22217 11.9999 6.22217C12.3986 6.22217 12.7222 6.54572 12.7222 6.94439V11.2777Z" fill="#3E78FE" fill-opacity="0.6"/>
</svg>
