<svg width="32" height="32" viewBox="0 0 32 32" fill="none" xmlns="http://www.w3.org/2000/svg">
<path d="M4.08342 13.8321C3.79608 13.8321 3.52051 13.7179 3.31733 13.5147C3.11415 13.3116 3 13.036 3 12.7486V4.08342C3 3.79608 3.11415 3.52051 3.31733 3.31733C3.52051 3.11415 3.79608 3 4.08342 3H12.7508C13.0382 3 13.3137 3.11415 13.5169 3.31733C13.7201 3.52051 13.8342 3.79608 13.8342 4.08342V12.7486C13.8342 13.036 13.7201 13.3116 13.5169 13.5147C13.3137 13.7179 13.0382 13.8321 12.7508 13.8321H4.08342ZM19.2514 13.8321C18.964 13.8321 18.6884 13.7179 18.4853 13.5147C18.2821 13.3116 18.1679 13.036 18.1679 12.7486V4.08342C18.1679 3.79608 18.2821 3.52051 18.4853 3.31733C18.6884 3.11415 18.964 3 19.2514 3H27.9166C28.2039 3 28.4795 3.11415 28.6827 3.31733C28.8859 3.52051 29 3.79608 29 4.08342V12.7486C29 13.036 28.8859 13.3116 28.6827 13.5147C28.4795 13.7179 28.2039 13.8321 27.9166 13.8321H19.2514ZM4.08342 29C3.79608 29 3.52051 28.8859 3.31733 28.6827C3.11415 28.4795 3 28.2039 3 27.9166V19.2492C3 18.9618 3.11415 18.6863 3.31733 18.4831C3.52051 18.2799 3.79608 18.1658 4.08342 18.1658H12.7508C13.0382 18.1658 13.3137 18.2799 13.5169 18.4831C13.7201 18.6863 13.8342 18.9618 13.8342 19.2492V27.9166C13.8342 28.2039 13.7201 28.4795 13.5169 28.6827C13.3137 28.8859 13.0382 29 12.7508 29H4.08342ZM19.2514 29C18.964 29 18.6884 28.8859 18.4853 28.6827C18.2821 28.4795 18.1679 28.2039 18.1679 27.9166V19.2492C18.1679 18.9618 18.2821 18.6863 18.4853 18.4831C18.6884 18.2799 18.964 18.1658 19.2514 18.1658H27.9166C28.2039 18.1658 28.4795 18.2799 28.6827 18.4831C28.8859 18.6863 29 18.9618 29 19.2492V27.9166C29 28.2039 28.8859 28.4795 28.6827 28.6827C28.4795 28.8859 28.2039 29 27.9166 29H19.2514Z" fill="#60A3FE"/>
</svg>
