<svg width="14" height="14" viewBox="0 0 14 14" fill="none" xmlns="http://www.w3.org/2000/svg">
<path fill-rule="evenodd" clip-rule="evenodd" d="M13.7908 1.21942C13.9247 1.08546 14 0.903767 14 0.714318C14 0.524869 13.9247 0.34318 13.7908 0.209219C13.6568 0.0752583 13.4751 0 13.2857 0C13.0962 0 12.9145 0.0752583 12.7806 0.209219L7 5.9898L1.21942 0.209219C1.08546 0.0752583 0.903767 1.37937e-08 0.714318 1.52052e-08C0.524869 1.66167e-08 0.34318 0.0752583 0.209219 0.209219C0.0752583 0.34318 1.66167e-08 0.524869 1.52052e-08 0.714318C1.37937e-08 0.903767 0.0752583 1.08546 0.209219 1.21942L5.9898 7L0.209219 12.7806C0.0752583 12.9145 0 13.0962 0 13.2857C0 13.4751 0.0752583 13.6568 0.209219 13.7908C0.34318 13.9247 0.524869 14 0.714318 14C0.903767 14 1.08546 13.9247 1.21942 13.7908L7 8.0102L12.7806 13.7908C12.9145 13.9247 13.0962 14 13.2857 14C13.4751 14 13.6568 13.9247 13.7908 13.7908C13.9247 13.6568 14 13.4751 14 13.2857C14 13.0962 13.9247 12.9145 13.7908 12.7806L8.0102 7L13.7908 1.21942Z" fill="#696E82"/>
</svg>
