<svg width="23" height="28" viewBox="0 0 23 28" fill="none" xmlns="http://www.w3.org/2000/svg">
<path d="M19.9 9.66667L18.724 21.7971C18.5462 23.6359 18.458 24.5546 18.052 25.2493C17.6959 25.8609 17.1722 26.35 16.547 26.6548C15.8372 27 14.944 27 13.152 27H9.848C8.0574 27 7.1628 27 6.453 26.6533C5.82727 26.3488 5.30306 25.8597 4.9466 25.2479C4.5434 24.5546 4.4538 23.6359 4.2746 21.7971L3.1 9.66667M13.6 19.0556V11.8333M9.4 19.0556V11.8333M1 6.05556H7.461M7.461 6.05556L8.0014 2.196C8.1582 1.494 8.7238 1 9.3734 1H13.6266C14.2762 1 14.8404 1.494 14.9986 2.196L15.539 6.05556M7.461 6.05556H15.539M15.539 6.05556H22" stroke="white" stroke-width="2" stroke-linecap="round" stroke-linejoin="round"/>
</svg>
