<svg width="32" height="32" viewBox="0 0 32 32" fill="none" xmlns="http://www.w3.org/2000/svg">
<path d="M4 27.745V12.491C4 12.0417 4.09829 11.6164 4.29486 11.2151C4.49143 10.8138 4.76229 10.4833 5.10743 10.2236L14.3389 3.06685C14.8223 2.68895 15.3743 2.5 15.9949 2.5C16.6154 2.5 17.1709 2.68895 17.6611 3.06685L26.8926 10.2218C27.2389 10.4815 27.5097 10.8126 27.7051 11.2151C27.9017 11.6164 28 12.0417 28 12.491V27.745C28 28.2154 27.8291 28.6254 27.4874 28.9753C27.1457 29.3251 26.7451 29.5 26.2857 29.5H20.4846C20.0914 29.5 19.7623 29.3643 19.4971 29.0928C19.232 28.8202 19.0994 28.4833 19.0994 28.082V19.7126C19.0994 19.3113 18.9669 18.9749 18.7017 18.7035C18.4354 18.4309 18.1063 18.2946 17.7143 18.2946H14.2857C13.8937 18.2946 13.5651 18.4309 13.3 18.7035C13.0337 18.9749 12.9006 19.3113 12.9006 19.7126V28.0838C12.9006 28.4851 12.768 28.8214 12.5029 29.0928C12.2377 29.3643 11.9091 29.5 11.5171 29.5H5.71429C5.25486 29.5 4.85429 29.3251 4.51257 28.9753C4.17086 28.6254 4 28.2154 4 27.745Z" fill="#60A3FE"/>
</svg>
