<svg width="40" height="34" viewBox="0 0 40 34" fill="none" xmlns="http://www.w3.org/2000/svg">
<path d="M36.6542 24.8457L36.6542 9.15432C36.6542 8.80752 36.792 8.47492 37.0372 8.2297C37.2825 7.98447 37.6151 7.84671 37.9619 7.84671C38.3087 7.84671 38.6413 7.98447 38.8865 8.2297C39.1318 8.47492 39.2695 8.80752 39.2695 9.15432L39.2695 24.8457C39.2695 25.1925 39.1318 25.5251 38.8865 25.7703C38.6413 26.0155 38.3087 26.1533 37.9619 26.1533C37.6151 26.1533 37.2825 26.0155 37.0372 25.7703C36.792 25.5251 36.6542 25.1925 36.6542 24.8457ZM32.7313 26.1533C33.0781 26.1533 33.4107 26.0155 33.6559 25.7703C33.9012 25.5251 34.0389 25.1925 34.0389 24.8457L34.0389 9.15432C34.0389 8.80752 33.9012 8.47492 33.6559 8.2297C33.4107 7.98447 33.0781 7.84671 32.7313 7.84671C32.3845 7.84671 32.0519 7.98447 31.8066 8.2297C31.5614 8.47492 31.4236 8.80752 31.4236 9.15432L31.4236 24.8457C31.4236 25.1925 31.5614 25.5251 31.8066 25.7703C32.0519 26.0155 32.3845 26.1533 32.7313 26.1533ZM0.383668 17.9251L16.0755 33.6165C16.2584 33.7996 16.4915 33.9243 16.7453 33.9748C16.9991 34.0254 17.2622 33.9995 17.5012 33.9004C17.7403 33.8013 17.9446 33.6336 18.0883 33.4184C18.2319 33.2031 18.3085 32.9501 18.3083 32.6914L18.3083 26.1533L27.5007 26.1533C27.8475 26.1533 28.1801 26.0155 28.4253 25.7703C28.6705 25.5251 28.8083 25.1925 28.8083 24.8457L28.8083 9.15432C28.8083 8.80752 28.6705 8.47492 28.4253 8.2297C28.1801 7.98447 27.8475 7.84671 27.5007 7.84671L18.3083 7.8467L18.3083 1.30864C18.3085 1.04987 18.2319 0.796854 18.0883 0.581629C17.9446 0.366404 17.7403 0.198647 17.5012 0.0995922C17.2622 0.00053726 16.9991 -0.0253609 16.7453 0.0251788C16.4915 0.0757186 16.2584 0.20042 16.0755 0.383501L0.383669 16.0749C0.262088 16.1963 0.165635 16.3405 0.0998283 16.4993C0.0340216 16.658 0.000154089 16.8282 0.000154074 17C0.000154059 17.1718 0.0340216 17.342 0.0998283 17.5007C0.165635 17.6595 0.262087 17.8037 0.383668 17.9251Z" fill="url(#paint0_linear_677_246)"/>
<defs>
<linearGradient id="paint0_linear_677_246" x1="-8.64665e-06" y1="17" x2="39" y2="17" gradientUnits="userSpaceOnUse">
<stop stop-color="#3E78FE" stop-opacity="0.9"/>
<stop offset="0.459983" stop-color="#3E78FE" stop-opacity="0.55"/>
<stop offset="1" stop-color="#3E78FE" stop-opacity="0.1"/>
</linearGradient>
</defs>
</svg>
