<svg width="117" height="22" viewBox="0 0 117 22" fill="none" xmlns="http://www.w3.org/2000/svg">
<path fill-rule="evenodd" clip-rule="evenodd" d="M38.6152 6.53302C38.6152 5.89997 38.1376 5.38679 37.5485 5.38679H36.4818C35.8927 5.38679 35.4152 5.89997 35.4152 6.53302V16.467C35.4152 17.1 35.8927 17.6132 36.4818 17.6132H37.5485C38.1376 17.6132 38.6152 17.1 38.6152 16.467V6.53302ZM31.181 7.83207H32.2477C32.8368 7.83207 33.3144 8.35757 33.3144 9.00581V16.4395C33.3144 17.0877 32.8368 17.6132 32.2477 17.6132H31.181C30.5919 17.6132 30.1144 17.0877 30.1144 16.4395V9.00581C30.1144 8.35757 30.5919 7.83207 31.181 7.83207ZM26.8493 10.4811H25.7826C25.1935 10.4811 24.7159 11.0133 24.7159 11.6698V16.4245C24.7159 17.081 25.1935 17.6132 25.7826 17.6132H26.8493C27.4384 17.6132 27.9159 17.081 27.9159 16.4245V11.6698C27.9159 11.0133 27.4384 10.4811 26.8493 10.4811ZM21.5485 12.9264H20.4818C19.8927 12.9264 19.4152 13.451 19.4152 14.0981V16.4415C19.4152 17.0886 19.8927 17.6132 20.4818 17.6132H21.5485C22.1376 17.6132 22.6152 17.0886 22.6152 16.4415V14.0981C22.6152 13.451 22.1376 12.9264 21.5485 12.9264Z" fill="black"/>
<path fill-rule="evenodd" clip-rule="evenodd" d="M54.1865 7.80213C56.6736 7.80223 59.0656 8.72432 60.8681 10.3778C61.0038 10.5054 61.2208 10.5038 61.3545 10.3742L62.652 9.11072C62.7197 9.04496 62.7574 8.95588 62.7568 8.8632C62.7563 8.77052 62.7175 8.68187 62.649 8.61688C57.918 4.24217 50.4542 4.24217 45.7232 8.61688C45.6547 8.68183 45.6158 8.77044 45.6152 8.86313C45.6145 8.95581 45.6522 9.04491 45.7199 9.11072L47.0177 10.3742C47.1513 10.504 47.3684 10.5056 47.5041 10.3778C49.3068 8.72421 51.6991 7.80212 54.1865 7.80213ZM54.1831 12.0224C55.5404 12.0223 56.8493 12.5341 57.8554 13.4582C57.9915 13.5893 58.2059 13.5865 58.3385 13.4518L59.6258 12.1325C59.6936 12.0633 59.7312 11.9694 59.7303 11.8718C59.7293 11.7743 59.6898 11.6812 59.6206 11.6134C56.5568 8.72257 51.8121 8.72257 48.7482 11.6134C48.679 11.6812 48.6395 11.7743 48.6386 11.8719C48.6377 11.9695 48.6755 12.0634 48.7434 12.1325L50.0303 13.4518C50.163 13.5865 50.3773 13.5893 50.5134 13.4582C51.5189 12.5347 52.8267 12.023 54.1831 12.0224ZM56.7075 14.816C56.7095 14.9213 56.6724 15.0229 56.6051 15.0967L54.4284 17.5514C54.3646 17.6236 54.2776 17.6642 54.1869 17.6642C54.0961 17.6642 54.0091 17.6236 53.9453 17.5514L51.7683 15.0967C51.701 15.0228 51.664 14.9212 51.666 14.8159C51.668 14.7105 51.7088 14.6108 51.7788 14.5401C53.1689 13.2262 55.2048 13.2262 56.5949 14.5401C56.6649 14.6108 56.7056 14.7106 56.7075 14.816Z" fill="black"/>
<rect opacity="0.35" x="70.2568" y="5.5" width="24" height="12" rx="3.8" stroke="black"/>
<path opacity="0.4" d="M95.7568 9.78113V13.8566C96.5616 13.5114 97.0849 12.7085 97.0849 11.8189C97.0849 10.9293 96.5616 10.1263 95.7568 9.78113" fill="black"/>
<rect x="71.7568" y="7" width="21" height="9" rx="2.5" fill="black"/>
</svg>
