<svg width="40" height="34" viewBox="0 0 40 34" fill="none" xmlns="http://www.w3.org/2000/svg">
<path d="M2.61531 9.15432V24.8457C2.61531 25.1925 2.47754 25.5251 2.2323 25.7703C1.98707 26.0155 1.65446 26.1533 1.30765 26.1533C0.960842 26.1533 0.628235 26.0155 0.383003 25.7703C0.13777 25.5251 0 25.1925 0 24.8457V9.15432C0 8.80752 0.13777 8.47492 0.383003 8.2297C0.628235 7.98447 0.960842 7.84671 1.30765 7.84671C1.65446 7.84671 1.98707 7.98447 2.2323 8.2297C2.47754 8.47492 2.61531 8.80752 2.61531 9.15432ZM6.53826 7.84671C6.19145 7.84671 5.85885 7.98447 5.61361 8.2297C5.36838 8.47492 5.23061 8.80752 5.23061 9.15432V24.8457C5.23061 25.1925 5.36838 25.5251 5.61361 25.7703C5.85885 26.0155 6.19145 26.1533 6.53826 26.1533C6.88508 26.1533 7.21768 26.0155 7.46291 25.7703C7.70815 25.5251 7.84592 25.1925 7.84592 24.8457V9.15432C7.84592 8.80752 7.70815 8.47492 7.46291 8.2297C7.21768 7.98447 6.88508 7.84671 6.53826 7.84671ZM38.8859 16.0749L23.194 0.383507C23.0111 0.200426 22.7781 0.0757221 22.5243 0.0251824C22.2705 -0.0253574 22.0074 0.000539377 21.7683 0.0995943C21.5292 0.198649 21.3249 0.366408 21.1813 0.581633C21.0376 0.796859 20.961 1.04987 20.9612 1.30864V7.84671L11.7689 7.84671C11.4221 7.84671 11.0895 7.98447 10.8442 8.2297C10.599 8.47492 10.4612 8.80752 10.4612 9.15432V24.8457C10.4612 25.1925 10.599 25.5251 10.8442 25.7703C11.0895 26.0155 11.4221 26.1533 11.7689 26.1533L20.9612 26.1533V32.6914C20.961 32.9501 21.0376 33.2031 21.1813 33.4184C21.3249 33.6336 21.5292 33.8013 21.7683 33.9004C22.0074 33.9995 22.2705 34.0254 22.5243 33.9748C22.7781 33.9243 23.0111 33.7996 23.194 33.6165L38.8859 17.9251C39.0074 17.8037 39.1039 17.6595 39.1697 17.5007C39.2355 17.342 39.2694 17.1718 39.2694 17C39.2694 16.8282 39.2355 16.658 39.1697 16.4993C39.1039 16.3405 39.0074 16.1963 38.8859 16.0749Z" fill="url(#paint0_linear_526_1049)"/>
<defs>
<linearGradient id="paint0_linear_526_1049" x1="39.2695" y1="17" x2="0.269531" y2="17" gradientUnits="userSpaceOnUse">
<stop stop-color="#3E78FE" stop-opacity="0.9"/>
<stop offset="0.459983" stop-color="#3E78FE" stop-opacity="0.55"/>
<stop offset="1" stop-color="#3E78FE" stop-opacity="0.1"/>
</linearGradient>
</defs>
</svg>
