<svg width="16" height="16" viewBox="0 0 16 16" fill="none" xmlns="http://www.w3.org/2000/svg">
<path d="M14.7296 1.21985C14.6281 1.11763 14.4995 1.04714 14.3592 1.01687C14.2189 0.986596 14.0729 0.997834 13.9388 1.04923L1.53329 5.78079H1.53081C1.38777 5.83623 1.2652 5.93481 1.17984 6.06307C1.09449 6.19133 1.0505 6.34301 1.05389 6.4974C1.05729 6.6518 1.10789 6.80137 1.1988 6.9257C1.28971 7.05002 1.41649 7.14304 1.56182 7.19204L1.57453 7.1961L5.83241 9.02829C5.91545 9.0537 6.00366 9.05671 6.08823 9.03702C6.17279 9.01734 6.25075 8.97564 6.31432 8.9161L13.148 2.49954C13.1684 2.47902 13.1925 2.46275 13.2191 2.45164C13.2458 2.44054 13.2743 2.43482 13.3031 2.43482C13.3319 2.43482 13.3604 2.44054 13.387 2.45164C13.4136 2.46275 13.4378 2.47902 13.4581 2.49954C13.4785 2.52006 13.4946 2.54442 13.5057 2.57123C13.5167 2.59804 13.5223 2.62677 13.5223 2.65579C13.5223 2.68481 13.5167 2.71354 13.5057 2.74035C13.4946 2.76716 13.4785 2.79152 13.4581 2.81204L7.09023 9.69517C7.03115 9.75923 6.98977 9.83779 6.97024 9.923C6.9507 10.0082 6.95369 10.0971 6.9789 10.1808L8.79772 14.4739C8.79958 14.4802 8.80144 14.4858 8.80361 14.4917C8.90285 14.7814 9.15404 14.9858 9.45764 14.9995H9.48866C9.64192 15.0004 9.79191 14.9548 9.91911 14.8687C10.0463 14.7825 10.1449 14.6598 10.2019 14.5164L14.8967 2.01892C14.9485 1.88369 14.9602 1.73626 14.9306 1.59445C14.9009 1.45264 14.8311 1.32253 14.7296 1.21985Z" fill="white"/>
</svg>
