<svg width="24" height="24" viewBox="0 0 24 24" fill="none" xmlns="http://www.w3.org/2000/svg">
<path d="M9.65723 3.5C11.3867 3.50001 12.8337 4.09379 14.0283 5.28711C15.2226 6.48015 15.8163 7.92646 15.8145 9.65625V9.65723C15.8144 10.3542 15.7037 11.0051 15.4854 11.6133C15.2636 12.231 14.9653 12.7706 14.5928 13.2363L14.3125 13.5859L14.6289 13.9023L20.3652 19.6377C20.45 19.7225 20.4999 19.8301 20.5 20.001C20.5 20.1721 20.4501 20.2804 20.3652 20.3652C20.2804 20.4501 20.1721 20.5 20.001 20.5C19.8301 20.4999 19.7225 20.45 19.6377 20.3652L13.9023 14.6289L13.5859 14.3125L13.2363 14.5928C12.7706 14.9653 12.231 15.2636 11.6133 15.4854C11.0051 15.7037 10.3542 15.8144 9.65723 15.8145C7.92618 15.8145 6.47958 15.2205 5.28711 14.0273C4.09457 12.8341 3.50069 11.3876 3.5 9.65723C3.49936 7.92706 4.09327 6.48031 5.28711 5.28711C6.48108 4.09382 7.92769 3.5 9.65723 3.5ZM9.6582 4.54883C8.24526 4.54732 7.02861 5.0468 6.03906 6.04004C5.05059 7.03228 4.55112 8.24739 4.54883 9.65625C4.54657 11.0664 5.04691 12.2823 6.04004 13.2754C7.03294 14.2683 8.24799 14.7674 9.65723 14.7646C11.0683 14.7646 12.2841 14.2667 13.2754 13.2764C14.2669 12.2857 14.7663 11.0692 14.7656 9.65723C14.7649 8.24557 14.2655 7.03011 13.2754 6.04004C12.2854 5.05009 11.0702 4.55045 9.6582 4.54883Z" fill="#3E78FE" stroke="#3E78FE"/>
</svg>
