<svg width="24" height="24" viewBox="0 0 24 24" fill="none" xmlns="http://www.w3.org/2000/svg">
<path d="M8.39455 16.5L7.40305 20.1844C7.34296 20.4281 7.21276 20.625 7.01246 20.775C6.81215 20.925 6.57179 21 6.29137 21C5.91079 21 5.60032 20.8594 5.35996 20.5781C5.11959 20.2969 5.04949 19.9875 5.14964 19.65L5.99091 16.5H2.71596C2.31535 16.5 1.99487 16.3549 1.7545 16.0646C1.51414 15.7744 1.44403 15.4508 1.54418 15.0938C1.60428 14.8312 1.74449 14.625 1.96482 14.475C2.18515 14.325 2.43553 14.25 2.71596 14.25H6.59182L7.79364 9.75H4.51868C4.11808 9.75 3.79759 9.60487 3.55723 9.31462C3.31687 9.02437 3.24676 8.70075 3.34691 8.34375C3.407 8.08125 3.54721 7.875 3.76755 7.725C3.98788 7.575 4.23826 7.5 4.51868 7.5H8.39455L9.38605 3.81562C9.44614 3.57187 9.57633 3.375 9.77664 3.225C9.97694 3.075 10.2173 3 10.4977 3C10.8783 3 11.1888 3.14062 11.4291 3.42188C11.6695 3.70312 11.7396 4.0125 11.6395 4.35L10.7982 7.5H15.6055L16.597 3.81562C16.657 3.57187 16.7872 3.375 16.9875 3.225C17.1878 3.075 17.4282 3 17.7086 3C18.0892 3 18.3997 3.14062 18.64 3.42188C18.8804 3.70312 18.9505 4.0125 18.8504 4.35L18.0091 7.5H21.284C21.6846 7.5 22.0051 7.64513 22.2455 7.93538C22.4859 8.22563 22.556 8.54925 22.4558 8.90625C22.3957 9.16875 22.2555 9.375 22.0352 9.525C21.8148 9.675 21.5645 9.75 21.284 9.75H17.4082L16.2064 14.25H19.4813C19.8819 14.25 20.2024 14.3955 20.4428 14.6865C20.6831 14.9775 20.7532 15.3007 20.6531 15.6562C20.593 15.9188 20.4528 16.125 20.2325 16.275C20.0121 16.425 19.7617 16.5 19.4813 16.5H15.6055L14.614 20.1844C14.5539 20.4281 14.4237 20.625 14.2234 20.775C14.0231 20.925 13.7827 21 13.5023 21C13.1217 21 12.8112 20.8594 12.5709 20.5781C12.3305 20.2969 12.2604 19.9875 12.3605 19.65L13.2018 16.5H8.39455ZM8.99546 14.25H13.8027L15.0045 9.75H10.1973L8.99546 14.25Z" fill="#3E78FE"/>
</svg>
