<svg width="8" height="8" viewBox="0 0 8 8" fill="none" xmlns="http://www.w3.org/2000/svg">
<path fill-rule="evenodd" clip-rule="evenodd" d="M7.39539 1.10971C7.46237 1.04273 7.5 0.951884 7.5 0.857159C7.5 0.762435 7.46237 0.67159 7.39539 0.60461C7.32841 0.537629 7.23756 0.5 7.14284 0.5C7.04812 0.5 6.95727 0.537629 6.89029 0.60461L4 3.4949L1.10971 0.60461C1.04273 0.537629 0.951884 0.5 0.857159 0.5C0.762435 0.5 0.67159 0.537629 0.60461 0.60461C0.537629 0.67159 0.5 0.762435 0.5 0.857159C0.5 0.951884 0.537629 1.04273 0.60461 1.10971L3.4949 4L0.60461 6.89029C0.537629 6.95727 0.5 7.04812 0.5 7.14284C0.5 7.23756 0.537629 7.32841 0.60461 7.39539C0.67159 7.46237 0.762435 7.5 0.857159 7.5C0.951884 7.5 1.04273 7.46237 1.10971 7.39539L4 4.5051L6.89029 7.39539C6.95727 7.46237 7.04812 7.5 7.14284 7.5C7.23756 7.5 7.32841 7.46237 7.39539 7.39539C7.46237 7.32841 7.5 7.23756 7.5 7.14284C7.5 7.04812 7.46237 6.95727 7.39539 6.89029L4.5051 4L7.39539 1.10971Z" fill="white" fill-opacity="0.47"/>
</svg>
